<svg xmlns="http://www.w3.org/2000/svg" viewBox="0 0 586.51 1042.14"><defs><style>.cls-1,.cls-3{fill:none;}.cls-1,.cls-2,.cls-3{stroke:#000;stroke-linecap:round;stroke-linejoin:round;}.cls-1{stroke-width:15px;}.cls-2{stroke-width:3px;}.cls-3{stroke-width:10px;}</style></defs><g id="Layer_1" data-name="Layer 1"><path class="cls-1" d="M1217.45,308.93c0-157.77-127.9-285.66-285.67-285.66S646.12,151.16,646.12,308.93c0,.51,0,1,0,1.54h0v648h571.33v-648h0C1217.43,310,1217.45,309.44,1217.45,308.93Z" transform="translate(-638.44 -15.77)"/><path class="cls-2" d="M676.42,1036.94c0-9.21-1.24-11-16.46-23.66-13.85-10.84-17-14.81-17-20.75V988.1c0-8.74,7.81-14.45,19.74-14.45s19.75,5.71,19.75,14.45v5.71c0,.82.27,1.52,2.06,1.52l-.55,1.16h-9.6l-.55-1.16c1.78,0,2.06-.7,2.06-1.52v-4.9c0-6.41-4.66-9.9-13.17-9.9s-13.16,3.49-13.16,9.9v2.34c0,5,2.6,8,15.08,18C680.53,1022.72,683,1026,683,1034V1042c0,8.51-8.5,14.45-20.71,14.45S642,1050.58,642,1042v-7.69c0-.82-1-1.52-2.06-1.52l.55-1.16h9.6l.55,1.16c-1.1,0-2.06.7-2.06,1.52v6.87c0,6.18,5.07,9.91,13.85,9.91s14-3.73,14-9.91Z" transform="translate(-638.44 -15.77)"/><path class="cls-2" d="M698.49,975.39l.69-1.16H708l.69,1.16c-1.51,0-2.06.47-2.06,1.52v74H731c2.47,0,3.43-.35,4.52-1.87l1.38.58-1.79,6.18H699.18l-.69-1.16c1.51,0,2.06-.47,2.06-1.52V976.91C700.55,975.86,700,975.39,698.49,975.39Z" transform="translate(-638.44 -15.77)"/><path class="cls-2" d="M768,973.65c12.07,0,20,5.82,20,14.45V1042c0,8.63-7.95,14.45-20,14.45s-20-5.82-20-14.45V988.1C748,979.47,755.94,973.65,768,973.65Zm-13.44,67.48c0,6.3,4.8,9.91,13.44,9.91s13.44-3.61,13.44-9.91V988.91c0-6.29-4.8-9.9-13.44-9.9s-13.44,3.61-13.44,9.9Z" transform="translate(-638.44 -15.77)"/><path class="cls-2" d="M798.18,974.23H807l.69,1.16c-1.23,0-1.65.47-1.37,1.52l18.51,74.37,1.1-4.43,8.77-31.59-9.46-38.35a2.57,2.57,0,0,0-2.6-1.52l.68-1.16h8.78l.68,1.16c-1.23,0-1.64.47-1.37,1.52l6.45,25.88,6.31-25.88c.27-1-.14-1.52-1.38-1.52l.69-1.16h8.78l.68,1.16a2.57,2.57,0,0,0-2.6,1.52l-9.47,38.35,8.78,31.59,1.1,4.43,18.51-74.37c.28-1-.14-1.52-1.37-1.52l.69-1.16h8.77l.69,1.16a2.59,2.59,0,0,0-2.61,1.52l-19.06,76.23c-.14.93,0,1.52.55,1.52l-.55,1.16H845.08l-.55-1.16c.55,0,.82-.59.55-1.52l-7.27-26.69-7.41,26.69c-.27.93,0,1.52.55,1.52l-.55,1.16H819.16l-.55-1.16c.55,0,.69-.59.55-1.52L800.1,976.91a2.59,2.59,0,0,0-2.61-1.52Z" transform="translate(-638.44 -15.77)"/><path class="cls-2" d="M957.65,1036.94c0-9.21-1.23-11-16.45-23.66-13.85-10.84-17-14.81-17-20.75V988.1c0-8.74,7.82-14.45,19.75-14.45s19.75,5.71,19.75,14.45v5.71c0,.82.27,1.52,2,1.52l-.54,1.16h-9.6l-.55-1.16c1.78,0,2.05-.7,2.05-1.52v-4.9c0-6.41-4.66-9.9-13.16-9.9s-13.16,3.49-13.16,9.9v2.34c0,5,2.6,8,15.08,18,15.91,13.52,18.38,16.78,18.38,24.82V1042c0,8.51-8.51,14.45-20.71,14.45s-20.3-5.82-20.3-14.45v-7.69c0-.82-1-1.52-2.05-1.52l.54-1.16h9.6l.55,1.16c-1.09,0-2,.7-2,1.52v6.87c0,6.18,5.07,9.91,13.85,9.91s14-3.73,14-9.91Z" transform="translate(-638.44 -15.77)"/><path class="cls-2" d="M976,980.41l1.79-6.18h46.07l1.78,6.18-1.37.58c-1.09-1.52-2-1.87-4.52-1.87h-15.91v74c0,1,.55,1.52,2.06,1.52l-.69,1.16h-8.77l-.69-1.16c1.51,0,2.06-.47,2.06-1.52v-74H981.92c-2.47,0-3.43.35-4.53,1.87Z" transform="translate(-638.44 -15.77)"/><path class="cls-2" d="M1037.45,1054.66c1.51,0,2.06-.47,2.06-1.52V976.91c0-1-.55-1.52-2.06-1.52l.69-1.16h8.78l.68,1.16c-1.51,0-2,.47-2,1.52v76.23c0,1,.54,1.52,2,1.52l-.68,1.16h-8.78Z" transform="translate(-638.44 -15.77)"/><path class="cls-2" d="M1059.39,980.41l1.79-6.18h46.07l1.78,6.18-1.37.58c-1.09-1.52-2.05-1.87-4.52-1.87h-15.91v74c0,1,.55,1.52,2.06,1.52l-.69,1.16h-8.77l-.69-1.16c1.51,0,2.06-.47,2.06-1.52v-74h-15.91c-2.47,0-3.43.35-4.53,1.87Z" transform="translate(-638.44 -15.77)"/><path class="cls-2" d="M1152.77,1036.94c0-1-.54-1.52-2-1.52l.55-1.16h9.6l.54,1.16c-1.5,0-2.05.47-2.05,1.52v5c0,8.63-8,14.45-20,14.45s-20-5.82-20-14.45V988.1c0-8.63,8-14.45,20-14.45s20,5.82,20,14.45v4.43c0,1.05.55,1.51,2.05,1.51l-.54,1.17h-9.6l-.55-1.17c1.51,0,2-.46,2-1.51v-3.62c0-6.29-4.8-9.9-13.43-9.9s-13.44,3.61-13.44,9.9v52.22c0,6.3,4.8,9.91,13.44,9.91s13.43-3.61,13.43-9.91Z" transform="translate(-638.44 -15.77)"/><path class="cls-2" d="M1173.48,1054.66c1.51,0,2-.47,2-1.52V976.91c0-1-.54-1.52-2-1.52l.68-1.16h8.78l.69,1.16c-1.51,0-2.06.47-2.06,1.52v35.43h31.54V976.91c0-1-.55-1.52-2.06-1.52l.69-1.16h8.77l.69,1.16c-1.51,0-2.06.47-2.06,1.52v76.23c0,1,.55,1.52,2.06,1.52l-.69,1.16h-8.77l-.69-1.16c1.51,0,2.06-.47,2.06-1.52v-35.9h-31.54v35.9c0,1,.55,1.52,2.06,1.52l-.69,1.16h-8.78Z" transform="translate(-638.44 -15.77)"/><path class="cls-3" d="M987.06,28.62l-19.7,26.2S774.83,226.73,746.18,252.58,695,323,708.23,362.6l73.41,184.62s34.45-20.68,20.17-55.28c0,0-33.3-99-35.94-108.25s-16-29.6,9.56-52.27" transform="translate(-638.44 -15.77)"/><path class="cls-3" d="M719.27,286.19S681.73,355,681.81,388.78,720.7,602.25,720.7,602.25s35.66-3,28.14-47.67-23.67-150.05-23.67-150.05" transform="translate(-638.44 -15.77)"/><path class="cls-3" d="M704.11,321.35s-51.67,85.73-53.44,122.46-4.55,206.46-4.55,206.46,38.81-3.65,39.66-38.92,2.76-170.11,2.76-170.11" transform="translate(-638.44 -15.77)"/><path class="cls-3" d="M1087.39,69.64,841.66,462.32s-46.14-21.12-9-81.39,46.52-74.47,46.52-74.47" transform="translate(-638.44 -15.77)"/><path class="cls-3" d="M772.8,403.43s19.5-58.26,61.69-79.63,101.77-29.65,146.08-83.45" transform="translate(-638.44 -15.77)"/><path class="cls-3" d="M902.69,958.46h0S1091.11,792,1119.77,766.14s51.22-70.39,37.94-110l-73.4-184.62s-34.45,20.68-20.17,55.27c0,0,33.3,99,35.94,108.26s16.05,29.6-9.56,52.27" transform="translate(-638.44 -15.77)"/><path class="cls-3" d="M1146.68,732.53s37.54-68.77,37.46-102.58-38.89-213.47-38.89-213.47-35.66,3-28.14,47.66,23.67,150.06,23.67,150.06" transform="translate(-638.44 -15.77)"/><path class="cls-3" d="M1161.84,697.38s51.67-85.73,53.44-122.46,2.17-206.47,2.17-206.47-36.43,3.66-37.28,38.93-2.76,170.11-2.76,170.11" transform="translate(-638.44 -15.77)"/><path class="cls-3" d="M772.69,958.46l251.6-402.05s46.14,21.12,9,81.38S986.89,712,986.89,712" transform="translate(-638.44 -15.77)"/><path class="cls-3" d="M1093.14,615.3s-19.49,58.25-61.68,79.63-101.78,29.65-146.08,83.45" transform="translate(-638.44 -15.77)"/><path class="cls-3" d="M943.26,479.72C1079.4,394.11,1062,238.91,1181.93,170.88" transform="translate(-638.44 -15.77)"/><path class="cls-3" d="M646.12,858.89c212.43-161.39,130.93-273.15,281.21-368" transform="translate(-638.44 -15.77)"/><path class="cls-3" d="M941.41,480.82c6.56-7,.83-14.27-6.36-14.58-8.88-.38-19.74,8.47-1,20.15,46.22,40.05,51.32-35.22,0,0C886,451.62,883.28,529,941.41,480.82Z" transform="translate(-638.44 -15.77)"/><path class="cls-3" d="M929.2,489.76s-11,16.36,4,30.64c14.23-11.54,6.25-29.78,6.25-29.78" transform="translate(-638.44 -15.77)"/></g></svg>